<svg width="311" height="277" viewBox="0 0 311 277" fill="none" xmlns="http://www.w3.org/2000/svg">
<path d="M310.727 138.666C310.727 118.096 284.967 98.6012 245.471 86.5121C254.585 46.2572 250.535 14.2305 232.686 3.97689C228.572 1.57172 223.761 0.432434 218.508 0.432434V14.547C221.419 14.547 223.761 15.1166 225.723 16.1926C234.331 21.1295 238.066 39.9278 235.154 64.106C234.458 70.0557 233.319 76.3218 231.926 82.7144C219.521 79.6763 205.976 77.3344 191.735 75.8154C183.19 64.106 174.329 53.4727 165.404 44.1685C186.038 24.9904 205.406 14.4837 218.571 14.4837V0.369141C201.165 0.369141 178.38 12.7747 155.341 34.2946C132.302 12.9013 109.516 0.622317 92.1102 0.622317V14.7368C105.212 14.7368 124.643 25.1803 145.277 44.2318C136.416 53.536 127.555 64.106 119.137 75.8154C104.832 77.3344 91.2874 79.6763 78.8818 82.7777C77.426 76.4483 76.35 70.3088 75.5905 64.4225C72.6157 40.2443 76.2867 21.446 84.8314 16.4458C86.7302 15.3065 89.1987 14.8001 92.1102 14.8001V0.68561C86.7935 0.68561 81.9832 1.8249 77.8058 4.23006C60.0202 14.4837 56.0327 46.4471 65.2103 86.5754C25.8415 98.7278 0.20752 118.159 0.20752 138.666C0.20752 159.237 25.9681 178.731 65.4635 190.82C56.3492 231.075 60.4 263.102 78.2488 273.355C82.3629 275.761 87.1733 276.9 92.4899 276.9C109.896 276.9 132.682 264.494 155.72 242.974C178.759 264.368 201.545 276.647 218.951 276.647C224.268 276.647 229.078 275.507 233.255 273.102C251.041 262.849 255.029 230.885 245.851 190.757C285.093 178.668 310.727 159.173 310.727 138.666ZM228.319 96.4492C225.977 104.614 223.065 113.032 219.774 121.45C217.179 116.387 214.457 111.323 211.482 106.26C208.571 101.196 205.469 96.2593 202.368 91.449C211.356 92.7782 220.027 94.4238 228.319 96.4492ZM199.33 163.857C194.393 172.402 189.33 180.503 184.076 188.035C174.645 188.858 165.088 189.301 155.467 189.301C145.91 189.301 136.353 188.858 126.985 188.099C121.732 180.567 116.605 172.528 111.668 164.047C106.858 155.756 102.49 147.337 98.5029 138.856C102.427 130.375 106.858 121.893 111.605 113.602C116.542 105.057 121.605 96.9555 126.858 89.4236C136.289 88.6008 145.847 88.1577 155.467 88.1577C165.025 88.1577 174.582 88.6008 183.95 89.3603C189.203 96.8923 194.33 104.931 199.267 113.412C204.077 121.703 208.444 130.122 212.432 138.603C208.444 147.084 204.077 155.566 199.33 163.857ZM219.774 155.629C223.192 164.11 226.103 172.592 228.508 180.82C220.217 182.845 211.482 184.554 202.431 185.883C205.533 181.01 208.634 176.01 211.546 170.883C214.457 165.819 217.179 160.692 219.774 155.629ZM155.594 223.163C149.708 217.087 143.821 210.315 137.998 202.909C143.695 203.163 149.518 203.353 155.404 203.353C161.354 203.353 167.24 203.226 173 202.909C167.303 210.315 161.417 217.087 155.594 223.163ZM108.503 185.883C99.5156 184.554 90.8443 182.909 82.5528 180.883C84.8947 172.718 87.8062 164.3 91.0975 155.882C93.6925 160.946 96.4142 166.009 99.389 171.073C102.364 176.136 105.402 181.073 108.503 185.883ZM155.277 54.1689C161.164 60.2451 167.05 67.0176 172.873 74.4229C167.177 74.1698 161.354 73.9799 155.467 73.9799C149.518 73.9799 143.631 74.1065 137.872 74.4229C143.568 67.0176 149.454 60.2451 155.277 54.1689ZM108.44 91.449C105.339 96.3226 102.237 101.323 99.3257 106.45C96.4142 111.513 93.6925 116.577 91.0975 121.64C87.6796 113.159 84.7681 104.677 82.3629 96.4492C90.6544 94.4871 99.389 92.7782 108.44 91.449ZM51.1591 170.693C28.7531 161.136 14.2588 148.603 14.2588 138.666C14.2588 128.729 28.7531 116.134 51.1591 106.64C56.6023 104.298 62.552 102.209 68.6915 100.247C72.2992 112.652 77.0462 125.564 82.9326 138.793C77.1095 151.958 72.4258 164.807 68.8813 177.149C62.6153 175.187 56.6656 173.035 51.1591 170.693ZM85.2112 261.14C76.6032 256.203 72.8689 237.405 75.7804 213.226C76.4766 207.277 77.6159 201.011 79.0084 194.618C91.414 197.656 104.959 199.998 119.2 201.517C127.745 213.226 136.606 223.86 145.53 233.164C124.896 252.342 105.528 262.849 92.3633 262.849C89.5151 262.785 87.11 262.216 85.2112 261.14ZM235.344 212.91C238.319 237.088 234.648 255.886 226.103 260.887C224.204 262.026 221.736 262.532 218.824 262.532C205.723 262.532 186.291 252.089 165.658 233.037C174.519 223.733 183.38 213.163 191.798 201.454C206.102 199.935 219.647 197.593 232.053 194.491C233.509 200.884 234.648 207.024 235.344 212.91ZM259.712 170.693C254.269 173.035 248.319 175.123 242.18 177.086C238.572 164.68 233.825 151.768 227.939 138.54C233.762 125.374 238.446 112.526 241.99 100.184C248.256 102.146 254.206 104.298 259.776 106.64C282.182 116.197 296.676 128.729 296.676 138.666C296.613 148.603 282.118 161.199 259.712 170.693Z" fill="#FF4500"/>
<path d="M155.404 167.591C171.379 167.591 184.329 154.641 184.329 138.666C184.329 122.691 171.379 109.741 155.404 109.741C139.429 109.741 126.479 122.691 126.479 138.666C126.479 154.641 139.429 167.591 155.404 167.591Z" fill="#FF4500"/>
</svg>
